<?xml version="1.0" encoding="utf-8"?>
<!-- Generator: Adobe Illustrator 23.0.1, SVG Export Plug-In . SVG Version: 6.00 Build 0)  -->
<svg version="1.1" id="Слой_1" xmlns="http://www.w3.org/2000/svg" xmlns:xlink="http://www.w3.org/1999/xlink" x="0px" y="0px"
	 viewBox="0 0 1417.32 1417.32" style="enable-background:new 0 0 1417.32 1417.32;" xml:space="preserve">
<style type="text/css">
	.st0{clip-path:url(#SVGID_2_);}
	.st1{fill-rule:evenodd;clip-rule:evenodd;}
	.st2{fill-rule:evenodd;clip-rule:evenodd;fill:#F4BF00;}
</style>
<g>
	<defs>
		<rect id="SVGID_1_" x="446.33" y="410.33" width="555.15" height="554"/>
	</defs>
	<clipPath id="SVGID_2_">
		<use xlink:href="#SVGID_1_"  style="overflow:visible;"/>
	</clipPath>
	<g class="st0">
		<path class="st1" d="M724.02,963.4c152.72,0,276.53-123.81,276.53-276.53c0-152.72-123.81-276.53-276.53-276.53
			c-100.69,0-188.81,53.81-237.17,134.25c6.84-1.75,14-2.68,21.38-2.68h0h130.47c-25.37,14.9-46.63,36.05-61.65,61.34h-68.82h0
			c-13.7,0-24.8,11.1-24.8,24.8c0,13.67,11.06,24.76,24.72,24.8h127.97h0.07h3.2l0.03,0.08c50.43,2.07,90.67,43.61,90.67,94.54
			c0,35.28-19.31,66.05-47.94,82.32l-43.81-49.17c17.04-1.46,30.41-15.75,30.41-33.16c0-18.16-14.55-32.93-32.63-33.27v0h-127.9h0
			c-0.04,0-0.07,0-0.11,0h-6.41v-0.24c-21.1-1.58-40.08-10.76-54.21-24.82c0.26,32.14,6,62.98,16.34,91.62h114.34
			c13.8,24.81,33.51,45.9,57.23,61.34H495.13C544.88,915.3,628.83,963.4,724.02,963.4z"/>
		<path class="st2" d="M814.38,724.69l-0.3-0.1c-13.72,34.85-48.05,59.56-88.24,59.56c-37.13,0-69.27-21.1-84.76-51.8h-62.95
			c18.15,65.24,77.99,113.11,149.01,113.11c65.45,0,121.41-40.66,143.99-98.09c0.14-0.34,0.27-0.69,0.4-1.04
			c0.27-0.71,0.54-1.43,0.81-2.15l-0.1-0.03c0.76-2.66,1.16-5.46,1.16-8.36c0-16.87-13.68-30.55-30.55-30.55
			C829.89,705.22,818.82,713.3,814.38,724.69z M865.59,629.21c0-6.95-2.28-13.36-6.13-18.52c-27.12-44.69-76.23-74.55-132.32-74.55
			c-67.2,0-124.38,42.85-145.72,102.72h65.8c16.98-24.96,45.86-41.38,78.62-41.38c35.12,0,65.77,18.87,82.1,46.9l0.12-0.06
			c5.26,9.42,15.3,15.79,26.81,15.79C851.84,660.11,865.59,646.27,865.59,629.21z"/>
	</g>
</g>
</svg>
